<svg width="325" height="89" viewBox="0 0 325 89" xmlns="http://www.w3.org/2000/svg">
  <g fill="#333" fill-rule="evenodd">
    <path d="M39 61V33.2h7.8v3c.7-1.2 2.5-3.9 7.7-3.9 2.5 0 5.8.9 8 5a10 10 0 018.8-5c2 0 5 .5 7.3 2.8 2.6 2.8 3 4.6 3 10.8V61h-8.3V46.2c0-2.2 0-6.1-4.3-6.1-4.5 0-4.5 4.2-4.5 5.8V61H56V45.9c0-1.5 0-5.8-4.1-5.8-4.7 0-4.7 4.5-4.7 6.1V61H39zm77.6-27.8V61h-8.3v-3h-.1c-1.4 2.7-4.9 4-8.1 4-8.8 0-14-7-14-14.9 0-9.1 6.6-14.8 14-14.8 4.6 0 7.1 2.2 8.1 3.9h.1v-3h8.3zm-22.1 14c0 2.6 1.8 7 6.8 7 5.3 0 7-4.4 7-7.1 0-3.4-2.3-7-7-7-4.8 0-6.8 4-6.8 7.1zm45-14h8.8l-13.9 37h-8.8l4.4-10.6-10.3-26.4h8.9l5.5 16.1h.1l5.3-16zm9 13.9c0-6.8 4.9-14.8 15-14.8s15 8 15 14.8c0 6.8-4.9 14.8-15 14.8s-15-8-15-14.8zm8.3 0c0 4 3.1 7 6.7 7s6.7-3 6.7-7-3.1-7-6.7-7-6.7 3-6.7 7zm25 0c0-6.8 4.9-14.8 15-14.8s15 8 15 14.8c0 6.8-4.9 14.8-15 14.8s-15-8-15-14.8zm8.3 0c0 4 3.1 7 6.7 7s6.6-3 6.6-7-3-7-6.6-7c-3.6 0-6.7 3-6.7 7zM216.5 61V33.2h7.8v3h.1c.7-1.4 2.1-3.9 7-3.9v8.4c-3.9 0-6.6.8-6.6 5V61h-8.3z" fill-rule="nonzero"/>
    <path d="M242 32h45v7h-45zM242 43h30v7h-30zM242 54h20v7h-20z"/>
  </g>
</svg>